<?xml version="1.0" encoding="utf-8"?>
<!-- Generator: Adobe Illustrator 19.2.1, SVG Export Plug-In . SVG Version: 6.00 Build 0)  -->
<svg version="1.1" id="Warstwa_1" xmlns="http://www.w3.org/2000/svg" xmlns:xlink="http://www.w3.org/1999/xlink" x="0px" y="0px"
	 viewBox="0 0 32 32" enable-background="new 0 0 32 32" xml:space="preserve">
<g>
	<path d="M17.497,31.997c-1.114,0-2.158-0.32-3.175-0.971c-1.995-1.277-3.836-3.01-5.626-5.298
		c-3.563-4.552-5.888-9.094-7.109-13.885C1.249,10.518,1.044,9.02,0.979,7.391C0.925,6.057,1.231,4.874,1.89,3.876
		C2.42,3.073,3.326,2.627,4.314,2.633C5.368,2.66,6.313,3.214,6.842,4.114h0l2.282,3.877c0.511,0.868,0.547,1.92,0.097,2.815
		c-0.666,1.324-0.668,2.892-0.008,5.085C9.767,17.73,10.705,19.297,12,20.55c1.18,1.142,2.347,1.696,3.567,1.697
		c1.104,0.001,2.116,0.574,2.638,1.494l2.168,3.807c0.497,0.872,0.521,1.932,0.064,2.834c-0.443,0.875-1.281,1.464-2.242,1.575
		C17.959,31.983,17.727,31.997,17.497,31.997z M4.235,3.632c-0.627,0-1.175,0.288-1.511,0.795C2.176,5.258,1.932,6.214,1.978,7.351
		c0.063,1.559,0.257,2.987,0.578,4.245c1.186,4.654,3.452,9.076,6.927,13.515c1.721,2.198,3.479,3.857,5.378,5.073
		c1.023,0.654,2.077,0.908,3.219,0.778c0.636-0.073,1.17-0.45,1.465-1.033c0.305-0.602,0.29-1.308-0.041-1.888l-2.168-3.807
		c-0.346-0.608-1.024-0.987-1.77-0.988c-1.492-0.001-2.886-0.648-4.261-1.979c-1.419-1.373-2.445-3.084-3.049-5.088
		c-0.499-1.654-0.94-3.811,0.072-5.823c0.297-0.59,0.273-1.285-0.065-1.859L5.98,4.621h0c-0.354-0.601-0.986-0.97-1.692-0.988
		C4.271,3.632,4.253,3.632,4.235,3.632z"/>
	<path d="M21.073,17.231c-0.074,0-0.148-0.017-0.219-0.051c-0.249-0.121-0.352-0.42-0.23-0.668c0.716-1.468,0.718-3.059,0.005-4.365
		c-0.696-1.275-1.979-2.11-3.521-2.292c-0.274-0.032-0.47-0.281-0.438-0.555c0.033-0.274,0.286-0.469,0.555-0.438
		c1.867,0.22,3.428,1.243,4.281,2.806c0.871,1.594,0.877,3.52,0.017,5.283C21.436,17.128,21.258,17.231,21.073,17.231z"/>
	<path d="M24.426,18.94c-0.074,0-0.148-0.017-0.219-0.051c-0.249-0.121-0.352-0.42-0.23-0.668c1.364-2.796,1.364-5.833,0.001-8.33
		c-1.334-2.442-3.786-4.042-6.729-4.389c-0.274-0.032-0.47-0.281-0.438-0.555c0.033-0.274,0.285-0.474,0.555-0.438
		c3.27,0.386,5.999,2.173,7.489,4.903c1.521,2.786,1.528,6.157,0.021,9.247C24.788,18.837,24.61,18.94,24.426,18.94z"/>
	<path d="M28.966,20.518c-0.074,0-0.148-0.017-0.219-0.051c-0.249-0.121-0.352-0.42-0.23-0.668
		c2.014-4.129,2.012-8.615-0.005-12.309C26.54,3.878,22.915,1.513,18.566,1c-0.274-0.032-0.471-0.281-0.438-0.555
		c0.031-0.274,0.286-0.472,0.555-0.438c4.675,0.552,8.577,3.104,10.706,7.004c2.174,3.982,2.184,8.802,0.025,13.226
		C29.328,20.414,29.15,20.518,28.966,20.518z"/>
	<path d="M21.79,29.899c-0.174,0-0.349-0.022-0.521-0.068c-0.523-0.138-0.962-0.472-1.234-0.94l-3.156-5.421
		c-0.562-0.967-0.233-2.21,0.733-2.772l0.951-0.554c0.969-0.563,2.211-0.233,2.772,0.732l3.155,5.421
		c0.562,0.967,0.233,2.21-0.731,2.772l-0.001,0.001l-0.952,0.554C22.492,29.806,22.144,29.899,21.79,29.899z M19.58,20.868
		c-0.179,0-0.355,0.047-0.515,0.14l-0.951,0.554c-0.237,0.139-0.406,0.36-0.477,0.626s-0.033,0.542,0.105,0.779l3.155,5.421
		c0.139,0.237,0.36,0.407,0.626,0.477c0.265,0.07,0.542,0.033,0.779-0.105l0.951-0.553c0.489-0.285,0.656-0.916,0.371-1.406
		l-3.155-5.421c-0.139-0.237-0.36-0.406-0.626-0.477C19.758,20.879,19.669,20.868,19.58,20.868z M23.507,28.638h0.01H23.507z"/>
	<path d="M10.557,10.425c-0.699,0-1.379-0.361-1.755-1.007L5.646,3.996C5.083,3.029,5.412,1.786,6.378,1.224L7.33,0.67
		c0.469-0.272,1.016-0.347,1.538-0.208c0.523,0.138,0.962,0.472,1.234,0.94l3.156,5.422c0.272,0.468,0.346,1.014,0.208,1.538
		c-0.139,0.523-0.472,0.961-0.94,1.234l-0.952,0.554C11.253,10.336,10.903,10.425,10.557,10.425z M8.348,1.395
		c-0.176,0-0.354,0.045-0.516,0.139L6.881,2.088c-0.237,0.138-0.406,0.36-0.477,0.625C6.334,2.979,6.372,3.255,6.51,3.493
		l3.156,5.422c0.285,0.489,0.915,0.656,1.405,0.371l0.952-0.554c0.489-0.285,0.656-0.915,0.371-1.404L9.237,1.905
		C9.047,1.578,8.702,1.395,8.348,1.395z"/>
</g>
</svg>
