<?xml version="1.0" encoding="utf-8"?>
<!-- Generator: Adobe Illustrator 19.2.1, SVG Export Plug-In . SVG Version: 6.00 Build 0)  -->
<svg version="1.1" id="Warstwa_1" xmlns="http://www.w3.org/2000/svg" xmlns:xlink="http://www.w3.org/1999/xlink" x="0px" y="0px"
	 viewBox="0 0 32 32" enable-background="new 0 0 32 32" xml:space="preserve">
<path d="M16.058,31.955c-4.466,0-12.912-0.64-12.912-3.063s8.446-3.063,12.912-3.063s12.912,0.64,12.912,3.063
	S20.523,31.955,16.058,31.955z M16.058,26.83c-7.707,0-11.912,1.362-11.912,2.063s4.205,2.063,11.912,2.063
	c7.708,0,11.912-1.362,11.912-2.063S23.766,26.83,16.058,26.83z"/>
<g>
	<path d="M23.599,8.343c-0.276,0-0.5-0.224-0.5-0.5c0-3.749-3.05-6.799-6.798-6.799c-3.749,0-6.799,3.05-6.799,6.799
		c0,0.276-0.224,0.5-0.5,0.5s-0.5-0.224-0.5-0.5c0-4.3,3.499-7.799,7.799-7.799s7.798,3.499,7.798,7.799
		C24.099,8.12,23.875,8.343,23.599,8.343z"/>
	<path d="M16.3,29.204c-0.27,0-0.492-0.215-0.5-0.486c-0.077-2.794-1.377-4.839-2.883-7.207c-2.07-3.255-4.416-6.943-4.416-13.667
		c0-0.276,0.224-0.5,0.5-0.5s0.5,0.224,0.5,0.5c0,6.433,2.263,9.992,4.26,13.131c1.519,2.389,2.954,4.646,3.039,7.716
		c0.007,0.276-0.21,0.506-0.486,0.514C16.31,29.204,16.305,29.204,16.3,29.204z"/>
	<path d="M16.301,29.204c-0.005,0-0.01,0-0.014,0c-0.276-0.008-0.494-0.237-0.486-0.514c0.085-3.07,1.52-5.327,3.039-7.716
		c1.997-3.14,4.26-6.698,4.26-13.131c0-0.276,0.224-0.5,0.5-0.5s0.5,0.224,0.5,0.5c0,6.724-2.346,10.413-4.415,13.667
		c-1.506,2.368-2.806,4.413-2.883,7.207C16.792,28.989,16.57,29.204,16.301,29.204z"/>
</g>
<path d="M16.3,11.669c-2.151,0-3.901-1.75-3.901-3.901c0-2.151,1.75-3.901,3.901-3.901c2.151,0,3.901,1.75,3.901,3.901
	C20.201,9.919,18.451,11.669,16.3,11.669z M16.3,4.867c-1.6,0-2.901,1.301-2.901,2.901s1.302,2.901,2.901,2.901
	c1.599,0,2.901-1.302,2.901-2.901S17.899,4.867,16.3,4.867z"/>
</svg>
