<?xml version="1.0" encoding="utf-8"?>
<!-- Generator: Adobe Illustrator 19.2.1, SVG Export Plug-In . SVG Version: 6.00 Build 0)  -->
<svg version="1.1" id="Warstwa_1" xmlns="http://www.w3.org/2000/svg" xmlns:xlink="http://www.w3.org/1999/xlink" x="0px" y="0px"
	 viewBox="-783 585 32 32" enable-background="new -783 585 32 32" xml:space="preserve">
<path fill="#818181" d="M-756.574,614.82l-5.133-2.833l-5.134,2.833l5.134-13.2L-756.574,614.82z M-761.707,604.38l-3.202,8.231
	l3.202-1.767l3.201,1.767L-761.707,604.38z"/>
<path fill="#818181" d="M-775.969,611.156c-0.276,0-0.5-0.224-0.5-0.5v-21.219c0-0.276,0.224-0.5,0.5-0.5s0.5,0.224,0.5,0.5v21.219
	C-775.469,610.933-775.692,611.156-775.969,611.156z"/>
<path fill="#818181" d="M-775.969,602.5c-0.276,0-0.5-0.224-0.5-0.5s0.224-0.5,0.5-0.5c3.126,0,5.734-0.646,7.541-1.867
	c1.533-1.037,2.377-2.417,2.377-3.888c0-2.886-3.407-5.808-9.918-5.808c-0.276,0-0.5-0.224-0.5-0.5s0.224-0.5,0.5-0.5
	c7.501,0,10.918,3.529,10.918,6.808C-765.051,598.999-768.467,602.5-775.969,602.5z"/>
</svg>
