<?xml version="1.0" encoding="utf-8"?>
<!-- Generator: Adobe Illustrator 19.2.1, SVG Export Plug-In . SVG Version: 6.00 Build 0)  -->
<svg version="1.1" id="Warstwa_1" xmlns="http://www.w3.org/2000/svg" xmlns:xlink="http://www.w3.org/1999/xlink" x="0px" y="0px"
	 viewBox="-783 585 32 32" enable-background="new -783 585 32 32" xml:space="preserve">
<path fill="#818181" d="M-771.487,602.911l-0.788-0.012v-12.454l0.788-0.007c5.382,0,9.762,2.797,9.763,6.236
	C-761.724,600.113-766.104,602.911-771.487,602.911z M-771.275,591.44v10.469c4.734-0.067,8.551-2.39,8.551-5.235
	C-762.725,593.83-766.541,591.508-771.275,591.44z"/>
<path fill="#818181" d="M-753.944,617.41h-26.112c-1.899,0-3.444-1.545-3.444-3.444v-25.932c0-1.899,1.545-3.444,3.444-3.444h26.112
	c1.899,0,3.444,1.545,3.444,3.444v25.932C-750.5,615.865-752.045,617.41-753.944,617.41z M-780.056,585.59
	c-1.348,0-2.444,1.097-2.444,2.444v25.932c0,1.348,1.096,2.444,2.444,2.444h26.112c1.348,0,2.444-1.097,2.444-2.444v-25.932
	c0-1.348-1.097-2.444-2.444-2.444H-780.056z M-772.292,612.596c-0.561,0-1.017-0.456-1.017-1.017v-21.126
	c0-0.199,0.045-0.36,0.137-0.525l0.094-0.137c0.175-0.235,0.47-0.387,0.786-0.387l0.157,0.02c0.183-0.013,0.392-0.02,0.648-0.02
	c5.954,0,10.796,3.261,10.796,7.27c0,3.961-4.729,7.192-10.584,7.27v7.635C-771.275,612.14-771.731,612.596-772.292,612.596z
	 M-772.296,590.414l-0.013,21.166l0.034-8.643l0.788,0.009c5.402,0,9.796-2.813,9.796-6.271s-4.395-6.27-9.796-6.27
	c-0.259,0-0.463,0.006-0.64,0.022l-0.086,0.008L-772.296,590.414z"/>
<g id="XMLID_6_">
</g>
</svg>
