<?xml version="1.0" encoding="utf-8"?>
<!-- Generator: Adobe Illustrator 19.2.1, SVG Export Plug-In . SVG Version: 6.00 Build 0)  -->
<svg version="1.1" id="Warstwa_1" xmlns="http://www.w3.org/2000/svg" xmlns:xlink="http://www.w3.org/1999/xlink" x="0px" y="0px"
	 viewBox="0 0 32 32" enable-background="new 0 0 32 32" xml:space="preserve">
<g>
	<path d="M29.142,31.969H2.858c-1.542,0-2.796-1.254-2.796-2.796V2.89c0-1.542,1.254-2.796,2.796-2.796h26.283
		c1.542,0,2.796,1.254,2.796,2.796v26.283C31.938,30.715,30.684,31.969,29.142,31.969z M2.858,1.094
		c-0.99,0-1.796,0.806-1.796,1.796v26.283c0,0.99,0.806,1.796,1.796,1.796h26.283c0.99,0,1.796-0.806,1.796-1.796V2.89
		c0-0.99-0.806-1.796-1.796-1.796H2.858z"/>
	<g>
		<path d="M28.947,4.58H3.052c-0.276,0-0.5-0.224-0.5-0.5s0.224-0.5,0.5-0.5h25.895c0.276,0,0.5,0.224,0.5,0.5
			S29.224,4.58,28.947,4.58z"/>
		<path d="M28.947,10.556H3.052c-0.276,0-0.5-0.224-0.5-0.5s0.224-0.5,0.5-0.5h25.895c0.276,0,0.5,0.224,0.5,0.5
			S29.224,10.556,28.947,10.556z"/>
		<path d="M28.947,16.531H3.052c-0.276,0-0.5-0.224-0.5-0.5s0.224-0.5,0.5-0.5h25.895c0.276,0,0.5,0.224,0.5,0.5
			S29.224,16.531,28.947,16.531z"/>
		<path d="M28.947,22.507H3.052c-0.276,0-0.5-0.224-0.5-0.5s0.224-0.5,0.5-0.5h25.895c0.276,0,0.5,0.224,0.5,0.5
			S29.224,22.507,28.947,22.507z"/>
		<path d="M28.947,28.482H3.052c-0.276,0-0.5-0.224-0.5-0.5s0.224-0.5,0.5-0.5h25.895c0.276,0,0.5,0.224,0.5,0.5
			S29.224,28.482,28.947,28.482z"/>
	</g>
</g>
</svg>
